<svg width="22" height="22" viewBox="0 0 22 22" fill="none" xmlns="http://www.w3.org/2000/svg">
<path d="M17.6177 10.8822L18.3284 10.8599C18.3214 10.6395 18.2127 10.4348 18.0339 10.3058C17.8552 10.1767 17.6267 10.1379 17.4153 10.2006L17.6177 10.8822ZM11.4271 4.69128L12.1087 4.89368C12.1715 4.68234 12.1327 4.45384 12.0036 4.27509C11.8746 4.09634 11.6699 3.98757 11.4495 3.98063L11.4271 4.69128ZM17.4153 10.2006C17.0307 10.3148 16.6226 10.3764 16.1989 10.3764V11.7984C16.7611 11.7984 17.3054 11.7166 17.8201 11.5638L17.4153 10.2006ZM16.1989 10.3764C13.8428 10.3764 11.9329 8.46645 11.9329 6.11042H10.5109C10.5109 9.25179 13.0575 11.7984 16.1989 11.7984V10.3764ZM11.9329 6.11042C11.9329 5.68659 11.9945 5.27841 12.1087 4.89368L10.7456 4.48888C10.5927 5.0036 10.5109 5.54808 10.5109 6.11042H11.9329ZM11.222 5.39905C11.2831 5.39905 11.3441 5.40001 11.4048 5.40192L11.4495 3.98063C11.3739 3.97825 11.2981 3.97705 11.222 3.97705V5.39905ZM5.53399 11.087C5.53399 7.94563 8.08058 5.39905 11.222 5.39905V3.97705C7.29524 3.97705 4.112 7.16029 4.112 11.087H5.53399ZM11.222 16.775C8.08058 16.775 5.53399 14.2284 5.53399 11.087H4.112C4.112 15.0137 7.29524 18.197 11.222 18.197V16.775ZM16.9099 11.087C16.9099 14.2284 14.3633 16.775 11.222 16.775V18.197C15.1487 18.197 18.3319 15.0137 18.3319 11.087H16.9099ZM16.9071 10.9046C16.909 10.9651 16.9099 11.0259 16.9099 11.087H18.3319C18.3319 11.011 18.3307 10.9353 18.3284 10.8599L16.9071 10.9046Z" fill="white"/>
</svg>
